<svg width="28" height="28" viewBox="0 0 28 28" fill="none" xmlns="http://www.w3.org/2000/svg">
<path d="M14.8777 26.5967C16.1149 26.6492 17.5059 26.0664 17.9525 24.5047C18.1174 23.9279 18.0985 23.4201 18.0365 23.0012C18.0081 22.8093 17.9706 22.6359 17.9375 22.4832L17.9368 22.4801C17.9248 22.4245 17.9134 22.3719 17.9032 22.3221C17.8082 21.8561 17.7417 21.4027 17.9525 20.6656C18.019 20.4329 18.1061 20.1917 18.2072 19.9485C18.4624 19.3346 18.8073 18.7071 19.14 18.1656C19.3669 17.7961 19.5779 17.483 19.7316 17.263C19.8083 17.1533 19.8702 17.0673 19.9122 17.0099C19.9332 16.9812 19.9492 16.9596 19.9595 16.9459L19.9707 16.9309L19.9731 16.9279C20.3263 16.4621 20.2355 15.7982 19.77 15.4446C19.3042 15.0908 18.6399 15.1815 18.2861 15.6471L18.2885 15.6443L18.2843 15.6495L18.2835 15.6506L18.2786 15.6572L18.2619 15.6793C18.2479 15.6982 18.2279 15.7251 18.2028 15.7594C18.1527 15.828 18.0817 15.9264 17.9955 16.0499C17.8233 16.2962 17.5885 16.6448 17.3352 17.0571C16.8392 17.8645 16.2304 18.9838 15.9161 20.0835C15.578 21.2658 15.6946 22.092 15.8281 22.7458L15.8588 22.8951C15.9663 23.4156 16.0051 23.6112 15.9161 23.9224C15.8626 24.1094 15.7621 24.2515 15.6123 24.3456C15.4609 24.4408 15.2501 24.4926 14.9676 24.4806C14.3714 24.4552 13.7464 24.1253 13.4347 23.6407C13.0963 23.1146 12.9307 22.4432 12.8851 21.6824C12.8395 20.9223 12.9141 20.08 13.0501 19.2178C13.222 18.1281 13.0026 17.0158 12.1796 16.3127C11.3385 15.5942 10.1989 15.5823 9.1486 15.997C8.28458 16.3379 7.39195 16.6529 6.56973 16.8226C5.72346 16.9973 5.1006 16.9853 4.69613 16.828C4.46163 16.7369 4.26165 16.607 4.09513 16.4087C3.92796 16.2095 3.79031 15.9364 3.68864 15.5528C3.46877 14.7233 3.44487 13.4528 3.71449 11.5666C4.24748 7.83796 5.28401 5.90284 6.50649 4.86619C7.72329 3.83439 9.32678 3.51788 11.4465 3.51791C13.835 3.51792 15.148 3.9552 16.0309 4.47019C16.4836 4.73431 16.858 5.03885 17.2358 5.37922C17.3453 5.4778 17.4624 5.58652 17.5854 5.70076L17.5865 5.70181C17.8587 5.95452 18.1591 6.23361 18.4604 6.4791C18.9137 6.84858 19.5808 6.78055 19.9503 6.32716C20.3198 5.87377 20.2517 5.2067 19.7984 4.83724C19.5493 4.6343 19.3336 4.43356 19.089 4.20601C18.9556 4.08187 18.8132 3.9494 18.6532 3.80537C18.2255 3.4201 17.7289 3.0087 17.0981 2.64071C15.8137 1.89147 14.1085 1.39992 11.4465 1.3999C9.17608 1.39989 6.93817 1.72319 5.13671 3.25079C3.34091 4.77355 2.18237 7.31741 1.61782 11.2669C1.3354 13.2426 1.31161 14.8514 1.64135 16.0954C1.98914 17.4076 2.74346 18.3414 3.92881 18.8022C4.90472 19.1814 6.01592 19.0995 6.99786 18.897C8.00379 18.6893 9.03339 18.3195 9.92617 17.9671C10.5207 17.7324 10.7531 17.8796 10.8039 17.9231C10.8723 17.9815 11.0616 18.2304 10.958 18.888C10.6861 20.6118 10.4995 22.9927 11.6534 24.7865C12.38 25.916 13.6757 26.5456 14.8777 26.5967Z" fill="black"/>
<path fill-rule="evenodd" clip-rule="evenodd" d="M23.6174 18.9061C25.2647 18.9061 26.6 17.5708 26.6 15.9237V5.66489C26.6 4.01769 25.2647 2.68237 23.6174 2.68237C21.9703 2.68237 20.635 4.01769 20.635 5.66489V15.9237C20.635 17.5708 21.9703 18.9061 23.6174 18.9061ZM24.4821 15.9237C24.4821 16.4011 24.095 16.7882 23.6174 16.7882C23.14 16.7882 22.7529 16.4011 22.7529 15.9237V5.66489C22.7529 5.18743 23.14 4.80038 23.6174 4.80038C24.095 4.80038 24.4821 5.18743 24.4821 5.66489V15.9237Z" fill="black"/>
</svg>
