<svg width="31" height="31" viewBox="0 0 31 31" fill="none" xmlns="http://www.w3.org/2000/svg">
<path d="M15.5 10.2976C14.8034 10.2976 14.2388 10.8623 14.2388 11.5588V17.7109C14.2388 18.4075 14.8034 18.9722 15.5 18.9722C16.1965 18.9722 16.7612 18.4075 16.7612 17.7109V11.5588C16.7612 10.8623 16.1965 10.2976 15.5 10.2976Z" fill="black"/>
<path fill-rule="evenodd" clip-rule="evenodd" d="M15.5 1.55005C13.8342 1.55005 12.6358 2.63399 11.5984 4.08923C10.5717 5.52947 9.48532 7.64631 8.11961 10.3074L4.6766 17.0159C3.47637 19.3544 2.51438 21.2287 1.99829 22.7415C1.47063 24.2882 1.29982 25.7635 2.09393 27.103C2.88846 28.4432 4.2496 28.9739 5.83797 29.2148C7.39083 29.45 9.4643 29.4501 12.0505 29.4501H18.9496C21.5357 29.4501 23.6092 29.45 25.1621 29.2148C26.7506 28.9739 28.1116 28.4432 28.9062 27.103C29.7002 25.7635 29.5294 24.2882 29.0018 22.7415C28.4858 21.2287 27.5237 19.3544 26.3235 17.0159L22.8805 10.3075C21.5148 7.64637 20.4284 5.52949 19.4017 4.08923C18.3643 2.63399 17.1658 1.55005 15.5 1.55005ZM13.4613 5.46735C14.3774 4.18235 14.9767 3.89534 15.5 3.89534C16.0233 3.89534 16.6227 4.18235 17.5388 5.46735C18.4539 6.75097 19.4639 8.71223 20.8886 11.4884L24.2362 18.0107C25.4941 20.4618 26.3738 22.1826 26.8271 23.5114C27.2754 24.8256 27.1971 25.449 26.9355 25.8905C26.6742 26.3313 26.1709 26.6906 24.8233 26.895C23.4599 27.1016 21.5588 27.1047 18.8474 27.1047H12.1526C9.44127 27.1047 7.54015 27.1016 6.17687 26.895C4.82929 26.6906 4.32597 26.3313 4.06467 25.8905C3.80293 25.449 3.72464 24.8256 4.17297 23.5114C4.62633 22.1826 5.50599 20.4618 6.76397 18.0107L10.1114 11.4884C11.5362 8.71223 12.5463 6.75097 13.4613 5.46735Z" fill="black"/>
<path d="M17.05 22.3781C17.05 23.2342 16.356 23.9281 15.5 23.9281C14.6439 23.9281 13.95 23.2342 13.95 22.3781C13.95 21.5221 14.6439 20.8281 15.5 20.8281C16.356 20.8281 17.05 21.5221 17.05 22.3781Z" fill="black"/>
</svg>
