<svg width="38" height="31" viewBox="0 0 38 31" fill="none" xmlns="http://www.w3.org/2000/svg">
<g filter="url(#filter0_d_46_452)">
<path d="M12.6891 18.0625L12.6891 18.0625L19.927 13.256L12.6891 8.44946C12.6891 8.44946 12.6891 8.44946 12.6891 8.44946C12.2059 8.12858 11.825 7.60459 11.825 6.94728C11.825 6.28996 12.2059 5.76597 12.6891 5.44509C13.1644 5.12944 13.7324 5.00098 14.2499 5.00098C14.7675 5.00098 15.3355 5.12944 15.8108 5.44509L15.8108 5.4451L25.3107 11.7538L25.3108 11.7538C25.7939 12.0747 26.1749 12.5986 26.1749 13.256C26.1749 13.9133 25.7939 14.4373 25.3107 14.7581M12.6891 18.0625L25.3107 14.7581M12.6891 18.0625C12.206 18.3834 11.825 18.9073 11.825 19.5647C11.825 20.222 12.206 20.746 12.6891 21.0668C13.1644 21.3825 13.7324 21.511 14.2499 21.511C14.7675 21.511 15.3355 21.3825 15.8108 21.0668M12.6891 18.0625L15.8108 21.0668M25.3107 14.7581L15.8108 21.0668M25.3107 14.7581L15.8108 21.0668" fill="white" stroke="white" stroke-width="2"/>
</g>
<defs>
<filter id="filter0_d_46_452" x="-4" y="0.323242" width="46" height="33.2349" filterUnits="userSpaceOnUse" color-interpolation-filters="sRGB">
<feFlood flood-opacity="0" result="BackgroundImageFix"/>
<feColorMatrix in="SourceAlpha" type="matrix" values="0 0 0 0 0 0 0 0 0 0 0 0 0 0 0 0 0 0 127 0" result="hardAlpha"/>
<feOffset dy="4"/>
<feGaussianBlur stdDeviation="2"/>
<feComposite in2="hardAlpha" operator="out"/>
<feColorMatrix type="matrix" values="0 0 0 0 0 0 0 0 0 0 0 0 0 0 0 0 0 0 0.25 0"/>
<feBlend mode="normal" in2="BackgroundImageFix" result="effect1_dropShadow_46_452"/>
<feBlend mode="normal" in="SourceGraphic" in2="effect1_dropShadow_46_452" result="shape"/>
</filter>
</defs>
</svg>
