<svg width="34" height="34" viewBox="0 0 34 34" fill="none" xmlns="http://www.w3.org/2000/svg">
<path fill-rule="evenodd" clip-rule="evenodd" d="M16.2299 3.08936H16.4864C17.1989 3.08936 17.7765 3.66634 17.7765 4.37806C17.7765 5.0898 17.1989 5.66676 16.4864 5.66676H16.3205C13.2517 5.66676 11.0717 5.66917 9.40819 5.87916C7.77723 6.08503 6.82436 6.47212 6.11609 7.11339C5.98052 7.23615 5.85105 7.36547 5.72817 7.50091C5.08623 8.20845 4.69873 9.16031 4.49266 10.7896C4.28246 12.4514 4.28004 14.6291 4.28004 17.6947C4.28004 20.7602 4.28246 22.9379 4.49266 24.5998C4.69873 26.2289 5.08623 27.1809 5.72817 27.8884C5.85105 28.0238 5.98052 28.1531 6.11609 28.2759C6.82436 28.9171 7.77723 29.3042 9.40819 29.5101C11.0717 29.7202 13.2517 29.7226 16.3205 29.7226C19.3893 29.7226 21.5692 29.7202 23.2327 29.5101C24.8636 29.3042 25.8165 28.9171 26.5249 28.2759C26.6604 28.1531 26.7899 28.0238 26.9128 27.8884C27.5547 27.1809 27.9422 26.2289 28.1482 24.5998C28.3585 22.9379 28.3609 20.7602 28.3609 17.6947C28.3609 16.9829 28.9384 16.4059 29.6508 16.4059C30.3633 16.4059 30.941 16.9829 30.941 17.6947V17.785C30.941 20.7399 30.941 23.0807 30.7081 24.9228C30.4685 26.8163 29.9648 28.3624 28.8245 29.6192C28.645 29.8173 28.4557 30.0063 28.2575 30.1857C26.9994 31.3248 25.4515 31.828 23.5562 32.0672C21.712 32.2999 19.3689 32.2999 16.411 32.2999H16.23C13.272 32.2999 10.9288 32.2999 9.08477 32.0672C7.18935 31.828 5.64162 31.3248 4.3834 30.1857C4.18527 30.0063 3.99604 29.8173 3.81645 29.6192C2.67609 28.3624 2.17242 26.8163 1.93292 24.9228C1.69991 23.0807 1.69993 20.7399 1.69995 17.7852V17.6041C1.69993 14.6493 1.69991 12.3086 1.93292 10.4665C2.17242 8.57306 2.67609 7.02691 3.81645 5.77002C3.99604 5.57209 4.18527 5.38306 4.3834 5.20366C5.64162 4.06448 7.18937 3.56133 9.08477 3.32209C10.9288 3.08932 13.272 3.08934 16.2299 3.08936Z" fill="black"/>
<path fill-rule="evenodd" clip-rule="evenodd" d="M29.799 4.11288C29.8131 4.12709 29.8274 4.14136 29.8418 4.15565C29.8561 4.16997 29.8704 4.18423 29.8846 4.19844C30.4679 4.78107 30.9709 5.28354 31.3417 5.73489C31.7344 6.21306 32.0686 6.73741 32.2108 7.38752C32.3298 7.93127 32.3298 8.49424 32.2108 9.03798C32.0686 9.6881 31.7344 10.2124 31.3417 10.6906C30.9709 11.142 30.4679 11.6444 29.8846 12.2271L23.1166 18.9881C23.067 19.0376 23.018 19.0865 22.9696 19.135C22.1207 19.9846 21.4489 20.657 20.5744 21.0189C19.6998 21.3809 18.7474 21.3798 17.544 21.3788C17.4753 21.3786 17.4058 21.3786 17.3356 21.3786H17.2586C16.5126 21.3786 15.829 21.3788 15.2731 21.3042C14.6615 21.2222 14.0144 21.0293 13.4825 20.4979C12.9506 19.9666 12.7574 19.3201 12.6753 18.7091C12.6007 18.1537 12.6008 17.471 12.6008 16.7258V16.6489C12.6008 16.5786 12.6008 16.5092 12.6007 16.4406C12.5996 15.2384 12.5987 14.2871 12.9609 13.4134C13.3232 12.5397 13.9963 11.8686 14.8468 11.0206C14.8953 10.9723 14.9443 10.9234 14.9939 10.8739L21.719 4.15565C21.7335 4.14136 21.7478 4.12709 21.7619 4.11288C22.3451 3.53021 22.8482 3.02769 23.3 2.65732C23.7786 2.26495 24.3035 1.9311 24.9543 1.78905C25.4986 1.67025 26.0622 1.67025 26.6065 1.78905C27.2573 1.9311 27.7823 2.26495 28.2608 2.65732C28.7127 3.02769 29.2157 3.53021 29.799 4.11288ZM26.6242 4.64979C26.2983 4.38267 26.1438 4.32628 26.0557 4.30706C25.8743 4.26746 25.6865 4.26746 25.5051 4.30706C25.417 4.32628 25.2625 4.38267 24.9366 4.64979C24.5949 4.92992 24.1817 5.34064 23.5435 5.97815L16.8183 12.6964C15.7495 13.764 15.4854 14.0601 15.3446 14.3997C15.2038 14.7393 15.1809 15.1362 15.1809 16.6489C15.1809 17.4967 15.1837 18.0033 15.2324 18.3662C15.2548 18.5327 15.2812 18.616 15.2966 18.6537C15.3002 18.6624 15.303 18.6682 15.3048 18.6714L15.307 18.6753L15.3109 18.6775C15.3142 18.6792 15.3199 18.6821 15.3286 18.6857C15.3663 18.7011 15.4498 18.7275 15.6164 18.7498C15.9798 18.7986 16.4868 18.8013 17.3356 18.8013C18.8498 18.8013 19.2471 18.7783 19.5871 18.6377C19.9271 18.497 20.2234 18.2331 21.2922 17.1655L28.0174 10.4474C28.6555 9.80982 29.0666 9.39704 29.3471 9.05566C29.6145 8.73013 29.671 8.57582 29.6902 8.48783C29.7298 8.30658 29.7298 8.11893 29.6902 7.93768C29.671 7.84968 29.6145 7.69538 29.3471 7.36984C29.0666 7.02847 28.6555 6.61569 28.0174 5.97815C27.3792 5.34062 26.9659 4.92992 26.6242 4.64979Z" fill="black"/>
</svg>
