<svg width="34" height="34" viewBox="0 0 34 34" fill="none" xmlns="http://www.w3.org/2000/svg">
<path fill-rule="evenodd" clip-rule="evenodd" d="M20.4723 0.338258C19.6668 -0.00179153 18.794 -0.000932242 17.731 0.000114292L16.9041 0.000250058C14.0799 0.000224953 11.8305 0.000204986 10.0673 0.241822C8.2474 0.491198 6.75605 1.01917 5.57747 2.22039C4.39918 3.42132 3.88153 4.94049 3.63699 6.79434C3.39997 8.59105 3.40001 10.8833 3.40002 13.7621V20.2382C3.40001 23.1169 3.39997 25.4092 3.63699 27.206C3.88153 29.0598 4.39918 30.5789 5.57747 31.7798C6.75605 32.981 8.2474 33.509 10.0673 33.7584C11.8305 34 14.0797 34 16.9039 34H17.0959C19.9199 34 22.1694 34 23.9325 33.7584C25.7525 33.509 27.2437 32.981 28.4223 31.7798C29.6006 30.5789 30.1182 29.0598 30.3629 27.206C30.5999 25.4092 30.5999 23.1171 30.5999 20.2383V13.1148C30.6009 12.0308 30.6017 11.1423 30.2685 10.3223C29.9352 9.50213 29.3179 8.87417 28.5651 8.10841L22.6449 2.07441C21.894 1.30758 21.2776 0.67822 20.4723 0.338258ZM10.4072 2.81058C11.9808 2.59495 14.0584 2.59218 16.9999 2.59218H17.5286C18.2063 2.59218 18.6293 2.59745 18.9203 2.61837C19.2093 2.63915 19.3601 2.67488 19.4963 2.73233C19.6325 2.78982 19.7641 2.87339 19.9828 3.06704C20.2033 3.2621 20.5061 3.56323 20.9853 4.05171L26.6198 9.7944C27.099 10.2829 27.3945 10.5914 27.5859 10.8161C27.776 11.0392 27.8581 11.1736 27.9147 11.3129C27.9713 11.4522 28.0065 11.6067 28.0269 11.9015C28.0475 12.1985 28.0526 12.6297 28.0526 13.3205V20.1409C28.0526 23.1387 28.05 25.2567 27.8384 26.861C27.6317 28.4283 27.2468 29.3095 26.6198 29.9486C25.9932 30.5873 25.1293 30.9791 23.5926 31.1897C22.0191 31.4053 19.9414 31.408 16.9999 31.408C14.0584 31.408 11.9808 31.4053 10.4072 31.1897C8.87056 30.9791 8.00662 30.5873 7.38 29.9486C6.7531 29.3095 6.36819 28.4283 6.16147 26.861C5.94984 25.2567 5.94715 23.1387 5.94715 20.1409V13.8594C5.94715 10.8616 5.94984 8.74346 6.16147 7.13918C6.36819 5.57202 6.7531 4.69064 7.38 4.05171C8.00662 3.41306 8.87056 3.02114 10.4072 2.81058Z" fill="black"/>
<path fill-rule="evenodd" clip-rule="evenodd" d="M21.6349 1.11449C21.3832 0.921506 20.7038 0.452976 19.8788 0.801226C19.055 1.14902 18.9003 1.96811 18.8563 2.28554C18.8077 2.63494 18.8078 3.07743 18.808 3.49633V4.52637C18.808 5.931 18.808 7.11388 18.9321 8.05562C19.0639 9.05419 19.3559 9.97324 20.0828 10.7142C20.8103 11.4555 21.7128 11.7535 22.6935 11.8879C23.6178 12.0145 24.7787 12.0145 26.1566 12.0144L27.1679 12.0145C27.5788 12.0146 28.0132 12.0148 28.3564 11.9653C28.6695 11.9202 29.4735 11.7616 29.8143 10.9229C30.1548 10.0854 29.6972 9.39533 29.5073 9.1382C29.299 8.85607 28.9919 8.54317 28.7013 8.24711L22.5092 1.9361C22.2187 1.63989 21.9117 1.32677 21.6349 1.11449ZM21.3551 4.43692V4.4284L26.2552 9.42251H26.2448C24.756 9.42251 23.7678 9.41976 23.0334 9.31912C22.336 9.22356 22.0608 9.06165 21.8855 8.88291C21.7097 8.70389 21.5506 8.42259 21.4566 7.7108C21.3578 6.96179 21.3551 5.95417 21.3551 4.43692Z" fill="black"/>
<path fill-rule="evenodd" clip-rule="evenodd" d="M16.9999 15.7339C17.698 15.7339 18.2638 16.3008 18.2638 17.0001V22.3842L19.4768 21.1693C19.9703 20.6748 20.7706 20.6748 21.2641 21.1693C21.7578 21.6637 21.7578 22.4654 21.2641 22.9599L17.8937 26.3363C17.4 26.8307 16.5998 26.8307 16.1062 26.3363L12.7357 22.9599C12.2421 22.4654 12.2421 21.6637 12.7357 21.1693C13.2293 20.6748 14.0295 20.6748 14.5232 21.1693L15.736 22.3842V17.0001C15.736 16.3008 16.3019 15.7339 16.9999 15.7339Z" fill="black"/>
</svg>
