<svg width="28" height="28" viewBox="0 0 28 28" fill="none" xmlns="http://www.w3.org/2000/svg">
<path d="M13.1223 1.40314C11.8852 1.3506 10.4941 1.93341 10.0476 3.49516C9.88268 4.07201 9.9015 4.57968 9.96354 4.99859C9.99198 5.19051 10.0295 5.36382 10.0626 5.51662L10.0632 5.51964C10.0753 5.57532 10.0866 5.62785 10.0968 5.67774C10.1919 6.14362 10.2583 6.59711 10.0476 7.33422C9.98106 7.56694 9.89403 7.80807 9.7929 8.05134C9.53772 8.66516 9.19269 9.29275 8.86009 9.8342C8.63314 10.2037 8.4221 10.5169 8.26842 10.7368C8.19176 10.8466 8.12978 10.9325 8.08778 10.9899C8.06678 11.0186 8.05082 11.0401 8.04053 11.0539L8.02932 11.0689L8.02698 11.072C7.67372 11.5377 7.76456 12.2016 8.23009 12.5553C8.69582 12.9091 9.36012 12.8183 9.71391 12.3526L9.71149 12.3555L9.71569 12.3503L9.71657 12.3492L9.72155 12.3426L9.7381 12.3205C9.7522 12.3016 9.77214 12.2747 9.79724 12.2404C9.84741 12.1718 9.91835 12.0734 10.0046 11.9499C10.1768 11.7036 10.4116 11.355 10.6648 10.9428C11.1608 10.1353 11.7696 9.01599 12.084 7.91641C12.422 6.73399 12.3055 5.9078 12.172 5.25396L12.1413 5.10479C12.0337 4.58415 11.995 4.38865 12.084 4.07735C12.1375 3.89032 12.238 3.74826 12.3878 3.65413C12.5392 3.55903 12.7499 3.50724 13.0324 3.51924C13.6285 3.54455 14.2537 3.87457 14.5653 4.35911C14.9037 4.88522 15.0693 5.5567 15.115 6.31735C15.1605 7.07748 15.0859 7.9198 14.9499 8.78191C14.7781 9.87169 14.9974 10.9841 15.8204 11.6872C16.6616 12.4056 17.8012 12.4174 18.8514 12.0029C19.7155 11.6618 20.608 11.3469 21.4304 11.1772C22.2765 11.0025 22.8994 11.0146 23.3039 11.1718C23.5384 11.2629 23.7384 11.3928 23.9049 11.5911C24.072 11.7902 24.2098 12.0634 24.3114 12.447C24.5312 13.2766 24.5552 14.547 24.2855 16.4332C23.7526 20.1619 22.716 22.0969 21.4935 23.1336C20.2768 24.1654 18.6732 24.482 16.5535 24.4818C14.1651 24.4818 12.852 24.0446 11.9692 23.5296C11.5164 23.2655 11.1421 22.961 10.7641 22.6205C10.6547 22.522 10.5376 22.4133 10.4146 22.2991L10.4135 22.298C10.1414 22.0453 9.84093 21.7663 9.53968 21.5207C9.08629 21.1512 8.41923 21.2193 8.04976 21.6726C7.6803 22.1261 7.74832 22.7932 8.20171 23.1626C8.45075 23.3655 8.66651 23.5662 8.91107 23.7937C9.04447 23.9179 9.18685 24.0504 9.34677 24.1944C9.77459 24.5797 10.2711 24.9912 10.9019 25.3591C12.1864 26.1084 13.8915 26.5999 16.5535 26.5999C18.824 26.5999 21.0619 26.2766 22.8633 24.749C24.6591 23.2263 25.8177 20.6824 26.3822 16.7328C26.6647 14.7572 26.6885 13.1485 26.3587 11.9043C26.0109 10.5921 25.2566 9.65838 24.0712 9.19765C23.0953 8.81832 21.9841 8.90022 21.0021 9.1029C19.9962 9.31052 18.9667 9.68038 18.0739 10.0328C17.4794 10.2674 17.247 10.1202 17.1962 10.0767C17.1278 10.0183 16.9383 9.76936 17.0421 9.11185C17.314 7.38805 17.5004 5.00717 16.3466 3.21329C15.6201 2.08373 14.3243 1.4542 13.1223 1.40314Z" fill="black"/>
<path fill-rule="evenodd" clip-rule="evenodd" d="M4.38251 9.09399C2.73533 9.09399 1.40002 10.4293 1.40002 12.0765V22.3353C1.40002 23.9825 2.73533 25.3178 4.38251 25.3178C6.0297 25.3178 7.36501 23.9825 7.36501 22.3353V12.0765C7.36501 10.4293 6.0297 9.09399 4.38251 9.09399ZM3.51801 12.0765C3.51801 11.5991 3.90506 11.212 4.38251 11.212C4.85997 11.212 5.24703 11.5991 5.24703 12.0765V22.3353C5.24703 22.8127 4.85997 23.1998 4.38251 23.1998C3.90506 23.1998 3.51801 22.8127 3.51801 22.3353V12.0765Z" fill="black"/>
</svg>
