<svg width="47" height="47" viewBox="0 0 47 47" fill="none" xmlns="http://www.w3.org/2000/svg">
<g filter="url(#filter0_d_46_464)">
<path d="M37.6622 28.136C38.4607 28.8256 39.6578 29.3517 40.7926 29.7321C41.9962 30.1358 42.5982 30.3377 42.5982 30.5261C42.5982 30.7147 41.9962 30.9166 40.7926 31.3203C39.6578 31.7008 38.4607 32.2268 37.6622 32.9164C36.6792 33.7655 35.9723 35.1458 35.4817 36.4699C34.9779 37.829 34.7259 38.5086 34.5286 38.5086C34.331 38.5086 34.0792 37.829 33.5755 36.4699C33.0849 35.1458 32.3779 33.7655 31.395 32.9164C30.5964 32.2268 29.3993 31.7008 28.2646 31.3203C27.0608 30.9166 26.459 30.7147 26.459 30.5261C26.459 30.3377 27.0608 30.1358 28.2646 29.7321C29.3993 29.3517 30.5964 28.8256 31.395 28.136C32.3779 27.2869 33.0849 25.9066 33.5755 24.5825C34.0792 23.2234 34.331 22.5438 34.5286 22.5438C34.7259 22.5438 34.9779 23.2234 35.4817 24.5825C35.9723 25.9066 36.6792 27.2869 37.6622 28.136Z" fill="url(#paint0_linear_46_464)"/>
<path d="M15.1621 10.0616C15.6977 10.5242 16.4781 10.8862 17.244 11.1579C18.1949 11.4953 18.6704 11.664 18.6704 11.8122C18.6704 11.9605 18.1949 12.1292 17.244 12.4666C16.4781 12.7383 15.6977 13.1003 15.1621 13.5629C14.502 14.1331 14.0118 15.0305 13.6579 15.9232C13.2338 16.9931 13.0217 17.528 12.8671 17.528C12.7124 17.528 12.5004 16.9931 12.0762 15.9232C11.7223 15.0304 11.2321 14.1331 10.572 13.5629C10.0364 13.1003 9.25603 12.7383 8.49014 12.4666C7.53919 12.1292 7.06372 11.9605 7.06372 11.8122C7.06372 11.664 7.53919 11.4953 8.49014 11.1579C9.25603 10.8862 10.0364 10.5242 10.572 10.0616C11.2321 9.49142 11.7223 8.59403 12.0762 7.70126C12.5004 6.63138 12.7124 6.09644 12.8671 6.09644C13.0217 6.09644 13.2338 6.63138 13.6579 7.70126C14.0118 8.59403 14.502 9.49142 15.1621 10.0616Z" fill="url(#paint1_linear_46_464)"/>
<path d="M22.8456 6.95496C23.194 7.25588 23.7016 7.49137 24.2 7.66816C24.8186 7.88763 25.1279 7.99739 25.1279 8.09382C25.1279 8.19027 24.8186 8.30003 24.2 8.5195C23.7016 8.69627 23.194 8.93178 22.8456 9.2327C22.4161 9.6036 22.0973 10.1874 21.867 10.7682C21.5911 11.4642 21.4532 11.8122 21.3526 11.8122C21.252 11.8122 21.114 11.4642 20.8381 10.7682C20.6078 10.1874 20.289 9.6036 19.8595 9.2327C19.5111 8.93178 19.0035 8.69627 18.5052 8.5195C17.8866 8.30003 17.5773 8.19027 17.5773 8.09382C17.5773 7.99739 17.8866 7.88763 18.5052 7.66816C19.0035 7.49137 19.5111 7.25588 19.8595 6.95496C20.289 6.58406 20.6078 6.00026 20.8381 5.41949C21.114 4.7235 21.252 4.37549 21.3526 4.37549C21.4532 4.37549 21.5911 4.7235 21.867 5.41949C22.0973 6.00028 22.4161 6.58406 22.8456 6.95496Z" fill="url(#paint2_linear_46_464)"/>
<path fill-rule="evenodd" clip-rule="evenodd" d="M40.5863 4.20857L40.4291 4.05853C39.7413 3.40067 39.1284 2.81447 38.4133 2.4861C37.1471 1.9047 35.672 1.9047 34.4059 2.4861C33.6908 2.81447 33.0778 3.40067 32.3901 4.05853L32.2329 4.20857L6.41384 28.8267L6.25648 28.9766C5.56653 29.6324 4.95171 30.2168 4.60735 30.8987C3.99758 32.1059 3.99758 33.5124 4.60735 34.7197C4.95174 35.4015 5.56653 35.986 6.25651 36.6417L6.41384 36.7916L6.57086 36.9415C7.25875 37.5995 7.87169 38.1856 8.58683 38.514C9.853 39.0954 11.3279 39.0954 12.5941 38.514C13.3092 38.1856 13.9222 37.5995 14.6101 36.9415L14.7671 36.7916L40.5863 12.1733L40.7434 12.0236C41.4336 11.3677 42.0483 10.7833 42.3927 10.1014C43.0025 8.8941 43.0025 7.48777 42.3927 6.28049C42.0483 5.59862 41.4336 5.01418 40.7434 4.35831L40.5863 4.20857ZM37.0153 5.25383C37.1669 5.32343 37.3643 5.48097 38.3081 6.38077C39.2518 7.28056 39.4169 7.46885 39.49 7.61336C39.6743 7.97834 39.6743 8.40351 39.49 8.76851C39.4169 8.91302 39.2518 9.10131 38.3081 10.0011L33.3717 14.7078L29.5748 11.0875L34.511 6.38077C35.4549 5.48097 35.6523 5.32343 35.8038 5.25383C36.1865 5.07806 36.6324 5.07806 37.0153 5.25383ZM27.2967 13.2597L8.692 30.9989C7.74831 31.8989 7.58308 32.0871 7.51009 32.2316C7.32574 32.5965 7.32574 33.0217 7.51009 33.3868C7.58308 33.5313 7.74831 33.7195 8.692 34.6194C9.63568 35.5192 9.83316 35.6766 9.98471 35.7463C10.3675 35.922 10.8134 35.922 11.1962 35.7463C11.3478 35.6766 11.5452 35.5192 12.4889 34.6194L31.0936 16.88L27.2967 13.2597Z" fill="url(#paint3_linear_46_464)"/>
</g>
<defs>
<filter id="filter0_d_46_464" x="-2" y="0" width="51" height="49" filterUnits="userSpaceOnUse" color-interpolation-filters="sRGB">
<feFlood flood-opacity="0" result="BackgroundImageFix"/>
<feColorMatrix in="SourceAlpha" type="matrix" values="0 0 0 0 0 0 0 0 0 0 0 0 0 0 0 0 0 0 127 0" result="hardAlpha"/>
<feOffset dy="4"/>
<feGaussianBlur stdDeviation="2"/>
<feComposite in2="hardAlpha" operator="out"/>
<feColorMatrix type="matrix" values="0 0 0 0 0 0 0 0 0 0 0 0 0 0 0 0 0 0 0.25 0"/>
<feBlend mode="normal" in2="BackgroundImageFix" result="effect1_dropShadow_46_464"/>
<feBlend mode="normal" in="SourceGraphic" in2="effect1_dropShadow_46_464" result="shape"/>
</filter>
<linearGradient id="paint0_linear_46_464" x1="34.5286" y1="22.5438" x2="34.5286" y2="38.5086" gradientUnits="userSpaceOnUse">
<stop stop-color="#AF4FFB"/>
<stop offset="1" stop-color="#C2C468"/>
</linearGradient>
<linearGradient id="paint1_linear_46_464" x1="12.8671" y1="6.09644" x2="12.8671" y2="17.528" gradientUnits="userSpaceOnUse">
<stop stop-color="#AF4FFB"/>
<stop offset="1" stop-color="#C2C468"/>
</linearGradient>
<linearGradient id="paint2_linear_46_464" x1="21.3526" y1="4.37549" x2="21.3526" y2="11.8122" gradientUnits="userSpaceOnUse">
<stop stop-color="#AF4FFB"/>
<stop offset="1" stop-color="#C2C468"/>
</linearGradient>
<linearGradient id="paint3_linear_46_464" x1="23.5" y1="2.05005" x2="23.5" y2="38.95" gradientUnits="userSpaceOnUse">
<stop stop-color="#AF4FFB"/>
<stop offset="1" stop-color="#C2C468"/>
</linearGradient>
</defs>
</svg>
