<svg width="51" height="51" viewBox="0 0 51 51" fill="none" xmlns="http://www.w3.org/2000/svg">
<path d="M24.3336 20.9114C24.6698 20.6179 25.1096 20.4401 25.5908 20.4401C26.1487 20.4401 26.6508 20.679 27.0004 21.06L31.9877 26.3177C32.7145 27.084 32.6826 28.2945 31.9163 29.0215C31.15 29.7483 29.9393 29.7164 29.2126 28.9501L27.5033 27.148V35.2835C27.5033 36.34 26.647 37.196 25.5905 37.196C24.5344 37.196 23.6782 36.3397 23.6782 35.2835L23.6783 27.0269L21.7639 28.9746C21.0235 29.7279 19.8126 29.7383 19.0593 28.998C18.306 28.2575 18.2955 27.0468 19.0359 26.2935L24.2267 21.0122C24.2521 20.9862 24.2782 20.9612 24.305 20.9369C24.3144 20.9283 24.324 20.9198 24.3336 20.9114Z" fill="black"/>
<path fill-rule="evenodd" clip-rule="evenodd" d="M25.1045 5.09998C20.5034 5.09998 16.0233 6.29799 12.9474 9.86853C11.5454 11.4961 10.5697 13.4681 9.98598 15.7349C9.94956 15.8763 9.91924 15.9939 9.89193 16.0966C9.78103 16.1276 9.65343 16.1621 9.49865 16.2038C7.6144 16.7122 5.92113 17.5902 4.48986 18.8335C1.40644 21.5118 0 25.4661 0 29.7238C0 35.1956 1.64622 39.4566 4.88442 42.2752C8.02834 45.0116 12.1212 45.9 16.0512 45.9C16.1829 45.9 16.3143 45.8982 16.4454 45.8951C16.4901 45.8982 16.5353 45.9 16.5808 45.9H38.07H38.0965H38.6195C38.6975 45.9 38.7743 45.8951 38.8498 45.8859C41.6848 45.7781 44.6706 45.0304 47.0373 42.9716C49.7061 40.65 51 37.1836 51 32.9044C51 29.6366 50.0239 26.2685 47.6304 23.8513C46.4125 22.621 44.918 21.7336 43.2077 21.2444C42.9038 21.1574 42.6686 21.0898 42.4822 21.0332C42.4771 20.8692 42.4733 20.6672 42.4685 20.412C42.4004 16.6559 41.1616 13.1932 38.7325 10.4799C35.559 6.93516 30.7533 5.09998 25.1045 5.09998ZM16.4479 45.7936L16.4504 45.8949L16.4454 45.8951L16.4403 45.8946L16.4479 45.7936ZM38.8416 45.7847L38.8454 45.8859H38.8498L38.8544 45.8854L38.8416 45.7847ZM9.89193 16.0966L9.94737 16.081L9.97512 16.1786L9.87704 16.1522L9.89193 16.0966ZM15.7859 12.3428C17.8696 9.92394 21.0794 8.87821 25.1045 8.87821C29.9628 8.87821 33.6447 10.443 35.9415 13.0083C37.7023 14.9752 38.6598 17.5356 38.7133 20.481L38.7146 20.5506C38.723 21.021 38.7314 21.4883 38.7712 21.8702C38.8097 22.2391 38.9033 22.8893 39.3424 23.4639C39.7956 24.0565 40.4343 24.3154 40.7722 24.4424C41.1455 24.5826 41.6201 24.7183 42.1145 24.8597L42.1803 24.8785C43.2796 25.1929 44.2096 25.7501 44.9692 26.5174C46.4722 28.0354 47.2441 30.3294 47.2441 32.9044C47.2441 36.4145 46.206 38.6998 44.5804 40.1138C43.0501 41.4451 40.954 42.0454 38.5726 42.115C38.5341 42.116 38.4958 42.1183 38.4581 42.1216H38.1332H38.1001H38.0967H38.07H16.7617C16.6769 42.1132 16.5907 42.1104 16.5034 42.1135C16.3534 42.1188 16.2027 42.1216 16.0512 42.1216C12.6119 42.1216 9.5458 41.3362 7.34206 39.4181C5.14641 37.5069 3.75595 34.4265 3.75595 29.7238C3.75595 26.2803 4.87945 23.487 6.94462 21.6931C7.91913 20.8466 9.09687 20.224 10.4717 19.8531L10.5268 19.8382C10.8577 19.749 11.2034 19.6558 11.4884 19.554C11.7838 19.4486 12.2516 19.2568 12.653 18.8492C13.0489 18.4471 13.2353 17.9853 13.3389 17.685C13.4369 17.4014 13.5247 17.0599 13.6076 16.7377L13.6219 16.6823C14.0815 14.8974 14.8147 13.4702 15.7859 12.3428Z" fill="black"/>
</svg>
